<mxfile host="app.diagrams.net" modified="2023-12-08T08:08:04.189Z" agent="Mozilla/5.0 (Macintosh; Intel Mac OS X 10_15_7) AppleWebKit/537.36 (KHTML, like Gecko) Chrome/119.0.0.0 Safari/537.36" etag="mP9Nc6jWGlFehbv2-_wp" version="22.1.7" type="github">
  <diagram name="Page-1" id="FIEWSwXzCEZSGsIRjYD_">
    <mxGraphModel dx="1674" dy="701" grid="1" gridSize="10" guides="1" tooltips="1" connect="1" arrows="1" fold="1" page="1" pageScale="1" pageWidth="1169" pageHeight="827" math="0" shadow="0">
      <root>
        <mxCell id="0" />
        <mxCell id="1" parent="0" />
        <mxCell id="B5_etHLyTeucPjupkv1W-7" value="" style="whiteSpace=wrap;html=1;aspect=fixed;" parent="1" vertex="1">
          <mxGeometry x="280" y="185" width="480" height="480" as="geometry" />
        </mxCell>
        <mxCell id="B5_etHLyTeucPjupkv1W-2" value="" style="rounded=0;whiteSpace=wrap;html=1;" parent="1" vertex="1">
          <mxGeometry x="80" y="185" width="120" height="320" as="geometry" />
        </mxCell>
        <mxCell id="B5_etHLyTeucPjupkv1W-3" value="" style="rounded=0;whiteSpace=wrap;html=1;" parent="1" vertex="1">
          <mxGeometry x="80" y="605" width="120" height="60" as="geometry" />
        </mxCell>
        <mxCell id="B5_etHLyTeucPjupkv1W-26" style="edgeStyle=orthogonalEdgeStyle;rounded=0;orthogonalLoop=1;jettySize=auto;html=1;exitX=1;exitY=0.5;exitDx=0;exitDy=0;entryX=0;entryY=0.5;entryDx=0;entryDy=0;" parent="1" source="B5_etHLyTeucPjupkv1W-4" target="B5_etHLyTeucPjupkv1W-14" edge="1">
          <mxGeometry relative="1" as="geometry" />
        </mxCell>
        <mxCell id="B5_etHLyTeucPjupkv1W-4" value="DWM" style="rounded=1;whiteSpace=wrap;html=1;" parent="1" vertex="1">
          <mxGeometry x="100" y="620" width="80" height="30" as="geometry" />
        </mxCell>
        <mxCell id="B5_etHLyTeucPjupkv1W-24" style="edgeStyle=orthogonalEdgeStyle;rounded=0;orthogonalLoop=1;jettySize=auto;html=1;entryX=0;entryY=0.5;entryDx=0;entryDy=0;" parent="1" source="B5_etHLyTeucPjupkv1W-5" target="B5_etHLyTeucPjupkv1W-15" edge="1">
          <mxGeometry relative="1" as="geometry" />
        </mxCell>
        <mxCell id="B5_etHLyTeucPjupkv1W-5" value="EBS" style="shape=cylinder3;whiteSpace=wrap;html=1;boundedLbl=1;backgroundOutline=1;size=15;" parent="1" vertex="1">
          <mxGeometry x="110" y="225" width="60" height="80" as="geometry" />
        </mxCell>
        <mxCell id="B5_etHLyTeucPjupkv1W-25" style="edgeStyle=orthogonalEdgeStyle;rounded=0;orthogonalLoop=1;jettySize=auto;html=1;entryX=0;entryY=0.5;entryDx=0;entryDy=0;" parent="1" source="B5_etHLyTeucPjupkv1W-6" target="B5_etHLyTeucPjupkv1W-13" edge="1">
          <mxGeometry relative="1" as="geometry" />
        </mxCell>
        <mxCell id="B5_etHLyTeucPjupkv1W-6" value="RMS" style="shape=cylinder3;whiteSpace=wrap;html=1;boundedLbl=1;backgroundOutline=1;size=15;" parent="1" vertex="1">
          <mxGeometry x="110" y="365" width="60" height="80" as="geometry" />
        </mxCell>
        <mxCell id="B5_etHLyTeucPjupkv1W-9" value="" style="endArrow=none;dashed=1;html=1;dashPattern=1 3;strokeWidth=2;rounded=0;" parent="1" edge="1">
          <mxGeometry width="50" height="50" relative="1" as="geometry">
            <mxPoint x="240" y="665" as="sourcePoint" />
            <mxPoint x="240" y="115" as="targetPoint" />
          </mxGeometry>
        </mxCell>
        <mxCell id="B5_etHLyTeucPjupkv1W-10" value="" style="endArrow=none;dashed=1;html=1;dashPattern=1 3;strokeWidth=2;rounded=0;" parent="1" edge="1">
          <mxGeometry width="50" height="50" relative="1" as="geometry">
            <mxPoint x="420" y="665" as="sourcePoint" />
            <mxPoint x="420" y="115" as="targetPoint" />
          </mxGeometry>
        </mxCell>
        <mxCell id="B5_etHLyTeucPjupkv1W-11" value="" style="endArrow=none;dashed=1;html=1;dashPattern=1 3;strokeWidth=2;rounded=0;" parent="1" edge="1">
          <mxGeometry width="50" height="50" relative="1" as="geometry">
            <mxPoint x="584" y="665" as="sourcePoint" />
            <mxPoint x="584" y="115" as="targetPoint" />
          </mxGeometry>
        </mxCell>
        <mxCell id="B5_etHLyTeucPjupkv1W-27" style="edgeStyle=orthogonalEdgeStyle;rounded=0;orthogonalLoop=1;jettySize=auto;html=1;entryX=0;entryY=0.5;entryDx=0;entryDy=0;" parent="1" source="B5_etHLyTeucPjupkv1W-13" target="B5_etHLyTeucPjupkv1W-15" edge="1">
          <mxGeometry relative="1" as="geometry" />
        </mxCell>
        <mxCell id="B5_etHLyTeucPjupkv1W-13" value="RMS Data Source Adapter" style="rounded=0;whiteSpace=wrap;html=1;" parent="1" vertex="1">
          <mxGeometry x="300" y="315" width="100" height="50" as="geometry" />
        </mxCell>
        <mxCell id="B5_etHLyTeucPjupkv1W-28" style="edgeStyle=orthogonalEdgeStyle;rounded=0;orthogonalLoop=1;jettySize=auto;html=1;entryX=0.5;entryY=1;entryDx=0;entryDy=0;" parent="1" source="B5_etHLyTeucPjupkv1W-14" target="B5_etHLyTeucPjupkv1W-15" edge="1">
          <mxGeometry relative="1" as="geometry" />
        </mxCell>
        <mxCell id="B5_etHLyTeucPjupkv1W-14" value="DWM Data Source Adapter" style="rounded=0;whiteSpace=wrap;html=1;" parent="1" vertex="1">
          <mxGeometry x="300" y="600" width="100" height="50" as="geometry" />
        </mxCell>
        <mxCell id="B5_etHLyTeucPjupkv1W-29" style="edgeStyle=orthogonalEdgeStyle;rounded=0;orthogonalLoop=1;jettySize=auto;html=1;" parent="1" source="B5_etHLyTeucPjupkv1W-15" target="B5_etHLyTeucPjupkv1W-16" edge="1">
          <mxGeometry relative="1" as="geometry" />
        </mxCell>
        <mxCell id="B5_etHLyTeucPjupkv1W-15" value="Data Lake" style="rounded=0;whiteSpace=wrap;html=1;" parent="1" vertex="1">
          <mxGeometry x="450" y="240" width="100" height="50" as="geometry" />
        </mxCell>
        <mxCell id="B5_etHLyTeucPjupkv1W-32" value="" style="edgeStyle=orthogonalEdgeStyle;rounded=0;orthogonalLoop=1;jettySize=auto;html=1;" parent="1" source="B5_etHLyTeucPjupkv1W-16" target="B5_etHLyTeucPjupkv1W-17" edge="1">
          <mxGeometry relative="1" as="geometry" />
        </mxCell>
        <mxCell id="B5_etHLyTeucPjupkv1W-16" value="Data Processing engine (ETL)" style="rounded=0;whiteSpace=wrap;html=1;" parent="1" vertex="1">
          <mxGeometry x="610" y="305" width="100" height="50" as="geometry" />
        </mxCell>
        <mxCell id="B5_etHLyTeucPjupkv1W-33" style="edgeStyle=orthogonalEdgeStyle;rounded=0;orthogonalLoop=1;jettySize=auto;html=1;entryX=0;entryY=0.5;entryDx=0;entryDy=0;" parent="1" source="B5_etHLyTeucPjupkv1W-17" target="B5_etHLyTeucPjupkv1W-19" edge="1">
          <mxGeometry relative="1" as="geometry" />
        </mxCell>
        <mxCell id="B5_etHLyTeucPjupkv1W-17" value="Data Mart" style="shape=cylinder3;whiteSpace=wrap;html=1;boundedLbl=1;backgroundOutline=1;size=15;" parent="1" vertex="1">
          <mxGeometry x="630" y="385" width="60" height="60" as="geometry" />
        </mxCell>
        <mxCell id="B5_etHLyTeucPjupkv1W-18" value="User Management" style="rounded=0;whiteSpace=wrap;html=1;" parent="1" vertex="1">
          <mxGeometry x="610" y="515" width="100" height="50" as="geometry" />
        </mxCell>
        <mxCell id="B5_etHLyTeucPjupkv1W-35" style="edgeStyle=orthogonalEdgeStyle;rounded=0;orthogonalLoop=1;jettySize=auto;html=1;entryX=1;entryY=0.5;entryDx=0;entryDy=0;" parent="1" source="B5_etHLyTeucPjupkv1W-19" target="B5_etHLyTeucPjupkv1W-18" edge="1">
          <mxGeometry relative="1" as="geometry">
            <Array as="points">
              <mxPoint x="800" y="540" />
            </Array>
          </mxGeometry>
        </mxCell>
        <mxCell id="B5_etHLyTeucPjupkv1W-36" style="edgeStyle=orthogonalEdgeStyle;rounded=0;orthogonalLoop=1;jettySize=auto;html=1;entryX=0;entryY=0.5;entryDx=0;entryDy=0;" parent="1" source="B5_etHLyTeucPjupkv1W-19" target="B5_etHLyTeucPjupkv1W-20" edge="1">
          <mxGeometry relative="1" as="geometry" />
        </mxCell>
        <mxCell id="B5_etHLyTeucPjupkv1W-19" value="DAaas&lt;br&gt;&amp;nbsp;Interface" style="rounded=1;whiteSpace=wrap;html=1;" parent="1" vertex="1">
          <mxGeometry x="750" y="355" width="120" height="60" as="geometry" />
        </mxCell>
        <mxCell id="B5_etHLyTeucPjupkv1W-20" value="BCI KeyClock" style="rounded=0;whiteSpace=wrap;html=1;" parent="1" vertex="1">
          <mxGeometry x="840" y="565" width="120" height="60" as="geometry" />
        </mxCell>
        <mxCell id="B5_etHLyTeucPjupkv1W-21" value="" style="rounded=1;whiteSpace=wrap;html=1;" parent="1" vertex="1">
          <mxGeometry x="920" y="260" width="210" height="240" as="geometry" />
        </mxCell>
        <mxCell id="B5_etHLyTeucPjupkv1W-22" value="" style="rounded=1;whiteSpace=wrap;html=1;" parent="1" vertex="1">
          <mxGeometry x="930" y="280" width="180" height="210" as="geometry" />
        </mxCell>
        <mxCell id="B5_etHLyTeucPjupkv1W-23" value="" style="whiteSpace=wrap;html=1;aspect=fixed;" parent="1" vertex="1">
          <mxGeometry x="950" y="300" width="140" height="140" as="geometry" />
        </mxCell>
        <mxCell id="B5_etHLyTeucPjupkv1W-37" value="Browser" style="text;html=1;strokeColor=none;fillColor=none;align=center;verticalAlign=middle;whiteSpace=wrap;rounded=0;" parent="1" vertex="1">
          <mxGeometry x="950" y="255" width="60" height="30" as="geometry" />
        </mxCell>
        <mxCell id="B5_etHLyTeucPjupkv1W-38" value="Insights Portal" style="text;html=1;strokeColor=none;fillColor=none;align=center;verticalAlign=middle;whiteSpace=wrap;rounded=0;" parent="1" vertex="1">
          <mxGeometry x="950" y="280" width="100" height="20" as="geometry" />
        </mxCell>
        <mxCell id="B5_etHLyTeucPjupkv1W-39" value="React JS, Express JS, Postgres" style="text;html=1;strokeColor=none;fillColor=none;align=center;verticalAlign=middle;whiteSpace=wrap;rounded=0;" parent="1" vertex="1">
          <mxGeometry x="960" y="320" width="100" height="20" as="geometry" />
        </mxCell>
        <mxCell id="B5_etHLyTeucPjupkv1W-41" value="Data Sources" style="text;html=1;strokeColor=none;fillColor=none;align=center;verticalAlign=middle;whiteSpace=wrap;rounded=0;" parent="1" vertex="1">
          <mxGeometry x="80" y="125" width="140" height="30" as="geometry" />
        </mxCell>
        <mxCell id="B5_etHLyTeucPjupkv1W-42" value="Data Ingestion" style="text;html=1;strokeColor=none;fillColor=none;align=center;verticalAlign=middle;whiteSpace=wrap;rounded=0;" parent="1" vertex="1">
          <mxGeometry x="260" y="125" width="140" height="30" as="geometry" />
        </mxCell>
        <mxCell id="B5_etHLyTeucPjupkv1W-43" value="Data Store" style="text;html=1;strokeColor=none;fillColor=none;align=center;verticalAlign=middle;whiteSpace=wrap;rounded=0;" parent="1" vertex="1">
          <mxGeometry x="430" y="125" width="140" height="30" as="geometry" />
        </mxCell>
        <mxCell id="B5_etHLyTeucPjupkv1W-44" value="Data Processing / Access" style="text;html=1;strokeColor=none;fillColor=none;align=center;verticalAlign=middle;whiteSpace=wrap;rounded=0;" parent="1" vertex="1">
          <mxGeometry x="590" y="125" width="160" height="30" as="geometry" />
        </mxCell>
        <mxCell id="B5_etHLyTeucPjupkv1W-45" value="User / Application" style="text;html=1;strokeColor=none;fillColor=none;align=center;verticalAlign=middle;whiteSpace=wrap;rounded=0;" parent="1" vertex="1">
          <mxGeometry x="930" y="125" width="160" height="30" as="geometry" />
        </mxCell>
        <mxCell id="B5_etHLyTeucPjupkv1W-49" value="" style="endArrow=classic;startArrow=classic;html=1;rounded=0;exitX=1;exitY=0.5;exitDx=0;exitDy=0;entryX=0;entryY=0.5;entryDx=0;entryDy=0;entryPerimeter=0;" parent="1" source="B5_etHLyTeucPjupkv1W-19" target="B5_etHLyTeucPjupkv1W-22" edge="1">
          <mxGeometry width="50" height="50" relative="1" as="geometry">
            <mxPoint x="880" y="430" as="sourcePoint" />
            <mxPoint x="930" y="380" as="targetPoint" />
          </mxGeometry>
        </mxCell>
        <mxCell id="ichtGMWloex9GX2R5fbw-3" style="edgeStyle=orthogonalEdgeStyle;rounded=0;orthogonalLoop=1;jettySize=auto;html=1;entryX=0.5;entryY=0;entryDx=0;entryDy=0;" edge="1" parent="1" source="ichtGMWloex9GX2R5fbw-1" target="B5_etHLyTeucPjupkv1W-21">
          <mxGeometry relative="1" as="geometry" />
        </mxCell>
        <mxCell id="ichtGMWloex9GX2R5fbw-1" value="" style="image;aspect=fixed;perimeter=ellipsePerimeter;html=1;align=center;shadow=0;dashed=0;spacingTop=3;image=img/lib/active_directory/web_server.svg;" vertex="1" parent="1">
          <mxGeometry x="830" y="185" width="60" height="75" as="geometry" />
        </mxCell>
        <mxCell id="ichtGMWloex9GX2R5fbw-6" style="edgeStyle=orthogonalEdgeStyle;rounded=0;orthogonalLoop=1;jettySize=auto;html=1;entryX=0;entryY=0.75;entryDx=0;entryDy=0;exitX=0.5;exitY=0;exitDx=0;exitDy=0;" edge="1" parent="1" source="ichtGMWloex9GX2R5fbw-4" target="B5_etHLyTeucPjupkv1W-21">
          <mxGeometry relative="1" as="geometry" />
        </mxCell>
        <mxCell id="ichtGMWloex9GX2R5fbw-4" value="" style="image;aspect=fixed;perimeter=ellipsePerimeter;html=1;align=center;shadow=0;dashed=0;spacingTop=3;image=img/lib/active_directory/database_server.svg;" vertex="1" parent="1">
          <mxGeometry x="840" y="470" width="57.4" height="70" as="geometry" />
        </mxCell>
        <mxCell id="ichtGMWloex9GX2R5fbw-7" value="Web server" style="text;html=1;strokeColor=none;fillColor=none;align=center;verticalAlign=middle;whiteSpace=wrap;rounded=0;" vertex="1" parent="1">
          <mxGeometry x="830" y="155" width="60" height="30" as="geometry" />
        </mxCell>
        <mxCell id="ichtGMWloex9GX2R5fbw-8" value="Postgres DB" style="text;html=1;strokeColor=none;fillColor=none;align=center;verticalAlign=middle;whiteSpace=wrap;rounded=0;" vertex="1" parent="1">
          <mxGeometry x="810" y="445" width="60" height="30" as="geometry" />
        </mxCell>
      </root>
    </mxGraphModel>
  </diagram>
</mxfile>
